<svg width="1091" height="240" viewBox="0 0 1091 240" fill="none" xmlns="http://www.w3.org/2000/svg">
<path fill-rule="evenodd" clip-rule="evenodd" d="M860.654 0.394896C855.176 1.77741 850.034 5.94714 847.523 11.0453C846.353 13.4192 846.138 14.7909 846.143 19.8477C846.147 24.9507 846.353 26.2236 847.533 28.4429C849.639 32.4042 853.382 36.1126 857.134 37.9558C860.022 39.3736 861.254 39.6151 865.606 39.6151C869.957 39.6151 871.189 39.3736 874.077 37.9558C878.019 36.0192 881.946 32.0058 883.778 28.0398C884.818 25.7899 885.072 24.1193 885.07 19.5482C885.068 14.5387 884.877 13.4988 883.473 10.8626C881.414 6.99238 877.438 3.16474 873.823 1.57018C870.55 0.126562 864.025 -0.455099 860.654 0.394896ZM245.63 7.59318C245.63 14.1793 249.668 25.0537 254.516 31.5284C261.232 40.4968 272.441 46.6103 284.716 47.9976L288.16 48.387V57.2858H298.607C304.917 57.2858 309.201 57.5231 309.424 57.8843C310.134 59.0326 307.878 65.9948 305.833 68.9665C304.7 70.6138 302.773 72.7523 301.552 73.7185C298.658 76.0073 293.229 78.2188 290.461 78.2368L288.27 78.2512L288.064 87.0866C287.874 95.1702 287.721 96.2125 286.259 99.334C284.225 103.679 280.385 107.52 275.848 109.748C272.706 111.29 271.65 111.495 266.895 111.487C262.33 111.479 260.982 111.234 258.092 109.887C253.745 107.861 249.572 103.693 247.529 99.334C245.969 96.0065 245.925 95.5925 245.739 82.594L245.548 69.266H203.101V82.6653C203.101 101.319 204.432 108.42 210.037 119.646C217.938 135.473 232.064 147.152 249.375 152.169C273.911 159.279 300.614 150.774 316.65 130.74C320.886 125.448 325.611 116.759 327.603 110.598C330.575 101.402 330.69 99.1908 330.69 50.9178V5.771H245.63V7.59318ZM416.947 154.924H457.081V121.679C457.081 103.395 457.283 88.4494 457.53 88.4679C457.777 88.4865 468.762 103.438 481.94 121.694L505.9 154.886L531.242 154.905C555.747 154.924 556.558 154.888 555.802 153.821C555.371 153.214 542.08 136.195 526.266 116C510.453 95.8064 497.533 78.849 497.555 78.3183C497.585 77.6325 543.484 16.2854 551.274 6.51976C551.75 5.92314 547.053 5.771 528.183 5.771H504.494L481.236 39.2862C468.445 57.7196 457.777 72.8146 457.53 72.8308C457.283 72.847 457.081 57.7651 457.081 39.3155V5.771H416.947V154.924ZM726.635 154.924H764.972V105.806L773.807 105.803C786.912 105.798 801.394 104.739 806.737 103.393C814.175 101.52 819.7 98.4205 824.873 93.2199C831.631 86.4253 834.893 80.1452 837.19 69.5074C838.43 63.7635 838.615 50.2361 837.525 45.0061C834.012 28.1482 825.012 16.0578 811.889 10.5667C802.2 6.51316 793.625 5.77582 756.136 5.77282L726.635 5.771V154.924ZM640.241 9.35365C622.609 13.0711 608.052 21.7376 595.394 36.0527C584.593 48.2683 577.67 61.8461 574.394 77.2401C572.878 84.3635 572.583 97.8107 573.813 103.709C576.642 117.264 582.771 127.705 592.053 134.782C601.185 141.744 609.953 144.796 620.91 144.825C631.615 144.853 641.143 142.359 653.257 136.358C669.692 128.215 681.838 115.676 691.013 97.3818C702.275 74.9267 703.653 54.3543 695.138 35.8174C685.616 15.0868 663.534 4.44237 640.241 9.35365ZM659.408 25.8427C664.824 27.1197 673.323 31.6698 673.323 33.2925C673.323 33.5704 669.751 34.9362 665.386 36.3271C644.458 42.9959 635.462 52.0331 629.835 72.0436C627.007 82.0992 624.775 86.7248 620.673 91.0269C616.229 95.6872 611.795 98.0455 600.152 101.943C594.789 103.738 590.355 105.207 590.299 105.207C589.72 105.207 588.62 95.8088 588.653 91.1299C588.72 81.4307 590.631 74.0497 595.601 64.2912C604.498 46.8223 618.525 33.7951 634.388 28.2704C643.889 24.9609 652.235 24.151 659.408 25.8427ZM782.343 38.1421C790.753 39.4695 794.876 41.8116 797.49 46.7463C798.57 48.7841 798.792 50.2133 798.803 55.1893C798.815 60.7865 798.695 61.3926 796.973 64.4284C793.565 70.4365 786.639 72.7984 772.31 72.8391L764.972 72.8601V37.5185L771.711 37.5233C775.417 37.5257 780.202 37.8043 782.343 38.1421ZM684.14 52.9736C685.123 58.1874 684.561 68.2998 682.933 74.6571C681.444 80.4759 678.248 88.281 675.208 93.5259C659.581 120.488 627.5 135.04 606.673 124.612C602.585 122.565 599.414 120.162 600.044 119.588C600.318 119.338 604.048 117.988 608.331 116.587C619.94 112.791 624.711 110.129 630.848 104.024C635.271 99.6251 636.429 98.0209 639.08 92.6214C640.894 88.9267 642.922 83.4997 644.004 79.4492C645.015 75.6605 646.698 70.8235 647.743 68.7012C649.846 64.426 654.222 59.5908 658.348 56.9828C661.879 54.7508 682.468 47.6693 683.01 48.5002C683.231 48.8392 683.74 50.8525 684.14 52.9736ZM847.036 154.924H883.576V51.8948H847.036V154.924ZM348.061 80.0482H400.774V54.8898H348.061V80.0482ZM233.051 98.1923C233.051 107.912 240.181 119.741 249.296 125.143C263.419 133.513 280.853 131.01 291.844 119.035C297.132 113.273 300.739 104.821 300.739 98.1923V95.6225H307.328V98.5217C307.328 108.087 301.254 120.134 292.869 127.197C285.524 133.383 276.843 136.501 266.895 136.525C257.033 136.547 248.298 133.41 240.922 127.197C232.537 120.134 226.462 108.087 226.462 98.5217V95.6225H233.051V98.1923Z" fill="#FFAB13"/>
<path fill-rule="evenodd" clip-rule="evenodd" d="M523.964 190.882C516.845 193.234 511.418 198.101 508.163 205.054C506.675 208.233 506.5 209.27 506.5 214.927C506.499 221.029 506.577 221.406 508.755 225.812C512.968 234.338 520.598 239.355 530.193 239.911C541.393 240.559 550.379 235.485 555.159 225.812C557.337 221.406 557.415 221.028 557.415 214.927C557.415 209.065 557.277 208.314 555.507 204.579C552.877 199.028 548.938 194.994 543.542 192.328C539.566 190.362 538.586 190.134 533.305 189.94C528.714 189.772 526.716 189.974 523.964 190.882ZM232.452 238.856H261.804V228.074H245.031V220.322L260.905 219.988L261.251 209.505H245.031V201.119H261.804V190.337H232.452V238.856ZM326.946 190.659C326.699 190.921 326.497 201.898 326.497 215.053V238.97L340.124 238.717C355.003 238.442 357.487 237.971 360.835 234.79C363.614 232.15 364.456 229.977 364.482 225.379C364.518 218.846 361.691 214.726 356.237 213.365L354.529 212.939L357.435 211.371C361.323 209.275 362.571 206.835 362.292 201.874C361.995 196.584 359.029 193.087 353.523 191.535C350.825 190.775 327.56 190.008 326.946 190.659ZM369.625 238.856H398.977V228.074H382.15L382.504 219.988L397.779 219.652V209.505H382.205V201.119H398.977V190.337H369.625V238.856ZM462.472 238.856H475.623L475.95 218.034L490.925 238.819L498.862 238.838C503.227 238.848 506.796 238.654 506.793 238.407C506.79 238.16 502.606 232.624 497.494 226.105L488.201 214.251L496.901 202.706C501.686 196.356 505.601 190.975 505.601 190.749C505.601 190.522 502.287 190.337 498.238 190.337H490.874L475.95 211.884L475.351 190.636L462.472 190.296V238.856ZM558.913 202.317H569.695V238.856H582.873V202.317H593.655V190.337H558.913V202.317ZM700.279 238.856H713.457V190.337H700.279V238.856ZM721.045 190.736C720.825 190.955 720.645 201.872 720.645 214.996V238.856H733.992L733.396 206.9L734.888 209.849C735.708 211.472 740.674 218.662 745.922 225.828L755.464 238.856H767.967V190.295L755.687 190.636L755.709 206.36C755.721 215.009 755.658 222.084 755.57 222.084C755.481 222.084 754.758 220.803 753.963 219.239C752.609 216.571 736.903 194.635 734.234 191.684C733.13 190.464 732.47 190.337 727.229 190.337C724.048 190.337 721.264 190.516 721.045 190.736ZM771.561 202.317H782.343V238.856H795.521V202.317H806.304V190.337H771.561V202.317ZM212.685 208.218C212.685 219.082 212.444 226.191 212.036 227.361C210.969 230.422 208.002 230.443 205.874 227.405C204.768 225.825 204.507 225.931 200.705 229.501C197.801 232.23 197.643 232.521 198.357 233.854C199.345 235.702 202.711 238.257 205.443 239.233C208.429 240.301 214.666 240.244 217.346 239.124C220.171 237.944 222.621 235.625 224.271 232.567C225.508 230.274 225.571 229.323 225.75 210.553L225.937 190.936H212.685V208.218ZM268.16 213.53C266.251 225.977 264.548 236.777 264.375 237.53C264.06 238.897 264.071 238.9 270.248 238.728L276.437 238.557L278.162 225.079C279.111 217.666 280.07 211.11 280.293 210.509C280.554 209.806 282.183 214.592 284.879 223.987L289.059 238.557L298.044 238.894L302.216 224.199C304.511 216.117 306.599 209.505 306.858 209.505C307.117 209.505 307.346 210.786 307.368 212.35C307.389 213.915 308.131 220.452 309.015 226.876L310.623 238.557L322.965 238.899L322.619 236.931C321.916 232.938 315.715 192.171 315.715 191.545C315.715 191.108 313.525 190.952 309.006 191.066L302.297 191.235L298.099 205.462C295.79 213.286 293.729 219.688 293.519 219.688C293.31 219.688 291.267 213.286 288.978 205.462L284.819 191.235L271.629 190.898L268.16 213.53ZM404.368 238.856H416.916L417.247 220.659L427.82 238.856H434.963C438.891 238.856 442.106 238.715 442.106 238.543C442.106 238.37 439.41 234.199 436.116 229.272C432.821 224.346 430.127 220.107 430.128 219.852C430.129 219.597 431.346 218.888 432.831 218.277C437.985 216.158 440.758 210.832 440.158 204.206C439.65 198.61 437.236 194.864 432.521 192.357C430.703 191.39 428.699 191.215 417.396 191.038L404.368 190.834V238.856ZM607.579 191.984C607.351 192.561 603.626 203.275 599.3 215.795L591.435 238.557L597.715 238.728C601.17 238.822 604.107 238.788 604.243 238.652C604.379 238.516 604.974 236.687 605.566 234.587L606.642 230.77L625.847 230.442L628.03 238.856H634.567C639.545 238.856 641.039 238.678 640.83 238.108C640.678 237.696 636.947 226.914 632.538 214.147L624.523 190.936H616.258C608.945 190.936 607.946 191.056 607.579 191.984ZM660.145 238.856H672.724V223.453L676.406 223.068C678.431 222.856 681.329 222.681 682.846 222.677C685.85 222.671 690.93 220.605 692.619 218.703C696.386 214.458 697.525 205.265 694.98 199.628C693.337 195.989 691.741 194.215 688.598 192.53C686.4 191.352 685.124 191.229 673.174 191.04L660.145 190.834V238.856ZM812.354 214.132C807.948 226.907 804.217 237.696 804.061 238.108C803.846 238.679 805.345 238.856 810.359 238.856H816.938L819.121 230.442L838.308 230.77L840.619 238.856H853.559L848.446 224.031C845.633 215.877 841.939 205.162 840.237 200.22L837.142 191.235L820.364 190.904L812.354 214.132ZM854.823 238.856H867.403V220.031L878.415 238.856H893.241L886.911 229.562C883.429 224.45 880.581 220.023 880.581 219.725C880.581 219.428 881.341 219.017 882.271 218.813C884.743 218.27 888.359 215.042 889.63 212.243C891.167 208.859 891.114 202.847 889.516 199.322C887.995 195.969 886.355 194.182 883.276 192.525C881.071 191.338 879.84 191.22 867.852 191.043L854.823 190.852V238.856ZM832.302 210.514C833.817 215.517 835.056 219.898 835.056 220.248C835.056 220.98 822.483 221.168 822.467 220.437C822.461 220.19 823.876 215.202 825.611 209.353C827.896 201.649 828.873 199.091 829.156 200.069C829.371 200.811 830.786 205.511 832.302 210.514ZM618.408 205.911C619.295 209.041 620.672 213.69 621.468 216.244L622.914 220.886H616.301C610.291 220.886 609.715 220.79 609.981 219.838C612.416 211.114 616.174 199.456 616.444 199.789C616.637 200.026 617.52 202.781 618.408 205.911ZM348.37 201.369C350.114 202.513 350.699 204.943 349.72 206.988C348.804 208.903 345.972 210.022 341.921 210.07L339.076 210.104V199.748L343.052 200.119C345.239 200.323 347.632 200.886 348.37 201.369ZM425.298 202.197C427.154 203.578 428.104 207.281 427.205 209.624C426.331 211.9 424.165 213.121 420.288 213.521L416.947 213.866V200.352L420.356 200.704C422.287 200.903 424.43 201.551 425.298 202.197ZM538.787 202.745C544.419 206.703 546.271 215.453 542.889 222.122C538.79 230.207 528.479 231.7 522.775 225.037C516.326 217.503 519.391 203.912 528.174 201.094C531.206 200.121 536.148 200.89 538.787 202.745ZM875.663 202.126C876.58 202.806 877.529 204.29 877.845 205.536C878.991 210.057 876.284 213.11 870.722 213.571L867.403 213.847V200.371L870.722 200.647C872.751 200.815 874.672 201.39 875.663 202.126ZM682.196 202.514C683.726 203.899 684.23 206.575 683.405 208.941C682.592 211.27 679.944 212.5 675.739 212.5H672.724V200.983L676.874 201.218C679.751 201.381 681.382 201.778 682.196 202.514ZM350.098 219.893C351.826 221.026 352.568 223.149 352.01 225.371C351.407 227.772 349.078 228.847 343.818 229.152L339.076 229.426V218.336L343.818 218.611C346.853 218.787 349.112 219.248 350.098 219.893Z" fill="#361410"/>
</svg>
