<svg width="2330" height="240" viewBox="0 0 2330 240" fill="none" xmlns="http://www.w3.org/2000/svg">
<path fill-rule="evenodd" clip-rule="evenodd" d="M1479.65 0.394896C1474.18 1.77741 1469.03 5.94714 1466.52 11.0453C1465.35 13.4192 1465.14 14.7909 1465.14 19.8477C1465.15 24.9507 1465.35 26.2236 1466.53 28.4429C1468.64 32.4042 1472.38 36.1126 1476.13 37.9558C1479.02 39.3736 1480.25 39.6151 1484.61 39.6151C1488.96 39.6151 1490.19 39.3736 1493.08 37.9558C1497.02 36.0192 1500.95 32.0058 1502.78 28.0398C1503.82 25.7899 1504.07 24.1193 1504.07 19.5482C1504.07 14.5387 1503.88 13.4988 1502.47 10.8626C1500.41 6.99238 1496.44 3.16474 1492.82 1.57018C1489.55 0.126562 1483.03 -0.455099 1479.65 0.394896ZM864.63 7.59318C864.63 14.1793 868.668 25.0537 873.516 31.5284C880.232 40.4968 891.441 46.6103 903.716 47.9976L907.16 48.387V57.2858H917.607C923.917 57.2858 928.201 57.5231 928.424 57.8843C929.134 59.0326 926.878 65.9948 924.833 68.9665C923.7 70.6138 921.773 72.7523 920.552 73.7185C917.658 76.0073 912.229 78.2188 909.461 78.2368L907.27 78.2512L907.064 87.0866C906.874 95.1702 906.721 96.2125 905.259 99.334C903.225 103.679 899.385 107.52 894.848 109.748C891.706 111.29 890.65 111.495 885.895 111.487C881.33 111.479 879.982 111.234 877.092 109.887C872.745 107.861 868.572 103.693 866.529 99.334C864.969 96.0065 864.925 95.5925 864.739 82.594L864.548 69.266H822.101V82.6653C822.101 101.319 823.432 108.42 829.037 119.646C836.938 135.473 851.064 147.152 868.375 152.169C892.911 159.279 919.614 150.774 935.65 130.74C939.886 125.448 944.611 116.759 946.603 110.598C949.575 101.402 949.69 99.1908 949.69 50.9178V5.771H864.63V7.59318ZM1035.95 154.924H1076.08V121.679C1076.08 103.395 1076.28 88.4494 1076.53 88.4679C1076.78 88.4865 1087.76 103.438 1100.94 121.694L1124.9 154.886L1150.24 154.905C1174.75 154.924 1175.56 154.888 1174.8 153.821C1174.37 153.214 1161.08 136.195 1145.27 116C1129.45 95.8064 1116.53 78.849 1116.56 78.3183C1116.59 77.6325 1162.48 16.2854 1170.27 6.51976C1170.75 5.92314 1166.05 5.771 1147.18 5.771H1123.49L1100.24 39.2862C1087.45 57.7196 1076.78 72.8146 1076.53 72.8308C1076.28 72.847 1076.08 57.7651 1076.08 39.3155V5.771H1035.95V154.924ZM1345.64 154.924H1383.97V105.806L1392.81 105.803C1405.91 105.798 1420.39 104.739 1425.74 103.393C1433.17 101.52 1438.7 98.4205 1443.87 93.2199C1450.63 86.4253 1453.89 80.1452 1456.19 69.5074C1457.43 63.7635 1457.61 50.2361 1456.53 45.0061C1453.01 28.1482 1444.01 16.0578 1430.89 10.5667C1421.2 6.51316 1412.63 5.77582 1375.14 5.77282L1345.64 5.771V154.924ZM1259.24 9.35365C1241.61 13.0711 1227.05 21.7376 1214.39 36.0527C1203.59 48.2683 1196.67 61.8461 1193.39 77.2401C1191.88 84.3635 1191.58 97.8107 1192.81 103.709C1195.64 117.264 1201.77 127.705 1211.05 134.782C1220.18 141.744 1228.95 144.796 1239.91 144.825C1250.62 144.853 1260.14 142.359 1272.26 136.358C1288.69 128.215 1300.84 115.676 1310.01 97.3818C1321.27 74.9267 1322.65 54.3543 1314.14 35.8174C1304.62 15.0868 1282.53 4.44237 1259.24 9.35365ZM1278.41 25.8427C1283.82 27.1197 1292.32 31.6698 1292.32 33.2925C1292.32 33.5704 1288.75 34.9362 1284.39 36.3271C1263.46 42.9959 1254.46 52.0331 1248.83 72.0436C1246.01 82.0992 1243.77 86.7248 1239.67 91.0269C1235.23 95.6872 1230.8 98.0455 1219.15 101.943C1213.79 103.738 1209.36 105.207 1209.3 105.207C1208.72 105.207 1207.62 95.8088 1207.65 91.1299C1207.72 81.4307 1209.63 74.0497 1214.6 64.2912C1223.5 46.8223 1237.53 33.7951 1253.39 28.2704C1262.89 24.9609 1271.23 24.151 1278.41 25.8427ZM1401.34 38.1421C1409.75 39.4695 1413.88 41.8116 1416.49 46.7463C1417.57 48.7841 1417.79 50.2133 1417.8 55.1893C1417.82 60.7865 1417.69 61.3926 1415.97 64.4284C1412.56 70.4365 1405.64 72.7984 1391.31 72.8391L1383.97 72.8601V37.5185L1390.71 37.5233C1394.42 37.5257 1399.2 37.8043 1401.34 38.1421ZM1303.14 52.9736C1304.12 58.1874 1303.56 68.2998 1301.93 74.6571C1300.44 80.4759 1297.25 88.281 1294.21 93.5259C1278.58 120.488 1246.5 135.04 1225.67 124.612C1221.59 122.565 1218.41 120.162 1219.04 119.588C1219.32 119.338 1223.05 117.988 1227.33 116.587C1238.94 112.791 1243.71 110.129 1249.85 104.024C1254.27 99.6251 1255.43 98.0209 1258.08 92.6214C1259.89 88.9267 1261.92 83.4997 1263 79.4492C1264.02 75.6605 1265.7 70.8235 1266.74 68.7012C1268.85 64.426 1273.22 59.5908 1277.35 56.9828C1280.88 54.7508 1301.47 47.6693 1302.01 48.5002C1302.23 48.8392 1302.74 50.8525 1303.14 52.9736ZM1466.04 154.924H1502.58V51.8948H1466.04V154.924ZM967.061 80.0482H1019.77V54.8898H967.061V80.0482ZM852.051 98.1923C852.051 107.912 859.181 119.741 868.296 125.143C882.419 133.513 899.853 131.01 910.844 119.035C916.132 113.273 919.739 104.821 919.739 98.1923V95.6225H926.328V98.5217C926.328 108.087 920.254 120.134 911.869 127.197C904.524 133.383 895.843 136.501 885.895 136.525C876.033 136.547 867.298 133.41 859.922 127.197C851.537 120.134 845.462 108.087 845.462 98.5217V95.6225H852.051V98.1923Z" fill="#FFAB13"/>
<path fill-rule="evenodd" clip-rule="evenodd" d="M1142.96 190.882C1135.84 193.234 1130.42 198.101 1127.16 205.054C1125.67 208.233 1125.5 209.27 1125.5 214.927C1125.5 221.029 1125.58 221.406 1127.76 225.812C1131.97 234.338 1139.6 239.355 1149.19 239.911C1160.39 240.559 1169.38 235.485 1174.16 225.812C1176.34 221.406 1176.41 221.028 1176.41 214.927C1176.41 209.065 1176.28 208.314 1174.51 204.579C1171.88 199.028 1167.94 194.994 1162.54 192.328C1158.57 190.362 1157.59 190.134 1152.3 189.94C1147.71 189.772 1145.72 189.974 1142.96 190.882ZM851.452 238.856H880.804V228.074H864.031V220.322L879.905 219.988L880.251 209.505H864.031V201.119H880.804V190.337H851.452V238.856ZM945.946 190.659C945.699 190.921 945.497 201.898 945.497 215.053V238.97L959.124 238.717C974.003 238.442 976.487 237.971 979.835 234.79C982.614 232.15 983.456 229.977 983.482 225.379C983.518 218.846 980.691 214.726 975.237 213.365L973.529 212.939L976.435 211.371C980.323 209.275 981.571 206.835 981.292 201.874C980.995 196.584 978.029 193.087 972.523 191.535C969.825 190.775 946.56 190.008 945.946 190.659ZM988.625 238.856H1017.98V228.074H1001.15L1001.5 219.988L1016.78 219.652V209.505H1001.2V201.119H1017.98V190.337H988.625V238.856ZM1081.47 238.856H1094.62L1094.95 218.034L1109.92 238.819L1117.86 238.838C1122.23 238.848 1125.8 238.654 1125.79 238.407C1125.79 238.16 1121.61 232.624 1116.49 226.105L1107.2 214.251L1115.9 202.706C1120.69 196.356 1124.6 190.975 1124.6 190.749C1124.6 190.522 1121.29 190.337 1117.24 190.337H1109.87L1094.95 211.884L1094.35 190.636L1081.47 190.296V238.856ZM1177.91 202.317H1188.69V238.856H1201.87V202.317H1212.66V190.337H1177.91V202.317ZM1319.28 238.856H1332.46V190.337H1319.28V238.856ZM1340.04 190.736C1339.82 190.955 1339.65 201.872 1339.65 214.996V238.856H1352.99L1352.4 206.9L1353.89 209.849C1354.71 211.472 1359.67 218.662 1364.92 225.828L1374.46 238.856H1386.97V190.295L1374.69 190.636L1374.71 206.36C1374.72 215.009 1374.66 222.084 1374.57 222.084C1374.48 222.084 1373.76 220.803 1372.96 219.239C1371.61 216.571 1355.9 194.635 1353.23 191.684C1352.13 190.464 1351.47 190.337 1346.23 190.337C1343.05 190.337 1340.26 190.516 1340.04 190.736ZM1390.56 202.317H1401.34V238.856H1414.52V202.317H1425.3V190.337H1390.56V202.317ZM831.685 208.218C831.685 219.082 831.444 226.191 831.036 227.361C829.969 230.422 827.002 230.443 824.874 227.405C823.768 225.825 823.507 225.931 819.705 229.501C816.801 232.23 816.643 232.521 817.357 233.854C818.345 235.702 821.711 238.257 824.443 239.233C827.429 240.301 833.666 240.244 836.346 239.124C839.171 237.944 841.621 235.625 843.271 232.567C844.508 230.274 844.571 229.323 844.75 210.553L844.937 190.936H831.685V208.218ZM887.16 213.53C885.251 225.977 883.548 236.777 883.375 237.53C883.06 238.897 883.071 238.9 889.248 238.728L895.437 238.557L897.162 225.079C898.111 217.666 899.07 211.11 899.293 210.509C899.554 209.806 901.183 214.592 903.879 223.987L908.059 238.557L917.044 238.894L921.216 224.199C923.511 216.117 925.599 209.505 925.858 209.505C926.117 209.505 926.346 210.786 926.368 212.35C926.389 213.915 927.131 220.452 928.015 226.876L929.623 238.557L941.965 238.899L941.619 236.931C940.916 232.938 934.715 192.171 934.715 191.545C934.715 191.108 932.525 190.952 928.006 191.066L921.297 191.235L917.099 205.462C914.79 213.286 912.729 219.688 912.519 219.688C912.31 219.688 910.267 213.286 907.978 205.462L903.819 191.235L890.629 190.898L887.16 213.53ZM1023.37 238.856H1035.92L1036.25 220.659L1046.82 238.856H1053.96C1057.89 238.856 1061.11 238.715 1061.11 238.543C1061.11 238.37 1058.41 234.199 1055.12 229.272C1051.82 224.346 1049.13 220.107 1049.13 219.852C1049.13 219.597 1050.35 218.888 1051.83 218.277C1056.99 216.158 1059.76 210.832 1059.16 204.206C1058.65 198.61 1056.24 194.864 1051.52 192.357C1049.7 191.39 1047.7 191.215 1036.4 191.038L1023.37 190.834V238.856ZM1226.58 191.984C1226.35 192.561 1222.63 203.275 1218.3 215.795L1210.43 238.557L1216.72 238.728C1220.17 238.822 1223.11 238.788 1223.24 238.652C1223.38 238.516 1223.97 236.687 1224.57 234.587L1225.64 230.77L1244.85 230.442L1247.03 238.856H1253.57C1258.55 238.856 1260.04 238.678 1259.83 238.108C1259.68 237.696 1255.95 226.914 1251.54 214.147L1243.52 190.936H1235.26C1227.94 190.936 1226.95 191.056 1226.58 191.984ZM1279.15 238.856H1291.72V223.453L1295.41 223.068C1297.43 222.856 1300.33 222.681 1301.85 222.677C1304.85 222.671 1309.93 220.605 1311.62 218.703C1315.39 214.458 1316.53 205.265 1313.98 199.628C1312.34 195.989 1310.74 194.215 1307.6 192.53C1305.4 191.352 1304.12 191.229 1292.17 191.04L1279.15 190.834V238.856ZM1431.35 214.132C1426.95 226.907 1423.22 237.696 1423.06 238.108C1422.85 238.679 1424.34 238.856 1429.36 238.856H1435.94L1438.12 230.442L1457.31 230.77L1459.62 238.856H1472.56L1467.45 224.031C1464.63 215.877 1460.94 205.162 1459.24 200.22L1456.14 191.235L1439.36 190.904L1431.35 214.132ZM1473.82 238.856H1486.4V220.031L1497.41 238.856H1512.24L1505.91 229.562C1502.43 224.45 1499.58 220.023 1499.58 219.725C1499.58 219.428 1500.34 219.017 1501.27 218.813C1503.74 218.27 1507.36 215.042 1508.63 212.243C1510.17 208.859 1510.11 202.847 1508.52 199.322C1507 195.969 1505.36 194.182 1502.28 192.525C1500.07 191.338 1498.84 191.22 1486.85 191.043L1473.82 190.852V238.856ZM1451.3 210.514C1452.82 215.517 1454.06 219.898 1454.06 220.248C1454.06 220.98 1441.48 221.168 1441.47 220.437C1441.46 220.19 1442.88 215.202 1444.61 209.353C1446.9 201.649 1447.87 199.091 1448.16 200.069C1448.37 200.811 1449.79 205.511 1451.3 210.514ZM1237.41 205.911C1238.3 209.041 1239.67 213.69 1240.47 216.244L1241.91 220.886H1235.3C1229.29 220.886 1228.72 220.79 1228.98 219.838C1231.42 211.114 1235.17 199.456 1235.44 199.789C1235.64 200.026 1236.52 202.781 1237.41 205.911ZM967.37 201.369C969.114 202.513 969.699 204.943 968.72 206.988C967.804 208.903 964.972 210.022 960.921 210.07L958.076 210.104V199.748L962.052 200.119C964.239 200.323 966.632 200.886 967.37 201.369ZM1044.3 202.197C1046.15 203.578 1047.1 207.281 1046.21 209.624C1045.33 211.9 1043.16 213.121 1039.29 213.521L1035.95 213.866V200.352L1039.36 200.704C1041.29 200.903 1043.43 201.551 1044.3 202.197ZM1157.79 202.745C1163.42 206.703 1165.27 215.453 1161.89 222.122C1157.79 230.207 1147.48 231.7 1141.77 225.037C1135.33 217.503 1138.39 203.912 1147.17 201.094C1150.21 200.121 1155.15 200.89 1157.79 202.745ZM1494.66 202.126C1495.58 202.806 1496.53 204.29 1496.85 205.536C1497.99 210.057 1495.28 213.11 1489.72 213.571L1486.4 213.847V200.371L1489.72 200.647C1491.75 200.815 1493.67 201.39 1494.66 202.126ZM1301.2 202.514C1302.73 203.899 1303.23 206.575 1302.4 208.941C1301.59 211.27 1298.94 212.5 1294.74 212.5H1291.72V200.983L1295.87 201.218C1298.75 201.381 1300.38 201.778 1301.2 202.514ZM969.098 219.893C970.826 221.026 971.568 223.149 971.01 225.371C970.407 227.772 968.078 228.847 962.818 229.152L958.076 229.426V218.336L962.818 218.611C965.853 218.787 968.112 219.248 969.098 219.893Z" fill="#361410"/>
</svg>
