<svg width="180" height="180" viewBox="0 0 180 180" fill="none" xmlns="http://www.w3.org/2000/svg">
<rect width="180" height="180" rx="32" fill="#FFAB13"/>
<path fill-rule="evenodd" clip-rule="evenodd" d="M89.6763 30.2175C86.7847 31.2929 84.8543 33.8849 84.2066 37.5618C83.9664 38.9252 83.9634 41.6038 84.2004 43.0163C84.8197 46.7068 86.6869 49.4012 89.5759 50.7732C90.021 50.9846 90.5303 51.1575 90.7075 51.1575C90.8848 51.1575 91.394 50.9846 91.8392 50.7732C94.5905 49.4666 96.4067 47.0387 97.2338 43.5618C97.493 42.4716 97.5095 42.2552 97.5081 39.9277C97.507 37.7657 97.479 37.3347 97.287 36.5186C96.6298 33.7261 95.2629 31.7591 93.2543 30.7159C91.8042 29.9629 90.7541 29.8165 89.6763 30.2175ZM90.6627 36.37C90.9641 38.5327 91.2346 39.7826 91.6668 41.0105C92.0302 42.0427 92.0479 42.1535 92.0428 43.3822C92.0383 44.5102 92.0026 44.7722 91.7571 45.4791C91.6028 45.9234 91.3615 46.4563 91.221 46.6631L90.9653 47.0393V45.1782C90.9653 42.9976 90.8694 42.3717 90.3793 41.3529C89.8005 40.1497 89.6172 39.305 89.556 37.5559C89.4965 35.8577 89.6167 34.9958 90.0545 33.9846L90.294 33.4311L90.3741 34.153C90.4183 34.55 90.5481 35.5477 90.6627 36.37ZM65.7523 38.6025C65.0681 38.7449 64.5439 38.9098 63.988 39.1572C63.4569 39.3935 63.2827 39.5432 62.8775 40.1109C62.2535 40.9855 61.8283 41.9357 61.5618 43.0513C61.3802 43.8115 61.3554 44.1632 61.4002 45.3415C61.4658 47.0653 61.7539 48.187 62.5657 49.8788C64.2992 53.4911 67.1533 56.4926 70.022 57.7197C71.4673 58.338 72.2413 58.4895 73.9504 58.4887C75.8861 58.4877 76.4861 58.3262 76.9235 57.6885C77.4061 56.9849 77.8471 56.0377 78.1451 55.0655C78.4018 54.2272 78.4229 54.0213 78.4224 52.3537C78.4218 50.7339 78.3942 50.4467 78.1526 49.5487C77.4057 46.7727 75.7113 43.9129 73.4864 41.6731C71.8277 40.0034 70.2435 39.054 68.4993 38.6843C67.8676 38.5503 66.2358 38.5018 65.7523 38.6025ZM111.851 40.5064C108.757 40.9573 105.798 43.2555 103.537 46.9625C102.302 48.9889 101.737 50.911 101.756 53.024C101.772 54.8834 102.153 56.2452 103.047 57.6391C103.334 58.0854 103.428 58.1499 104.098 58.3609C104.726 58.5581 105.065 58.5924 106.382 58.5921C108.21 58.5916 109.111 58.3946 110.619 57.6654C114.384 55.8444 117.96 51.046 118.391 47.233C118.632 45.1086 117.951 42.9526 116.602 41.5701C116.166 41.1238 115.95 40.9921 115.353 40.8089C114.113 40.428 113.031 40.3346 111.851 40.5064ZM67.8963 45.6509C69.0555 46.8936 70.2674 47.9846 71.2643 48.6832C72.0823 49.2564 72.5491 49.7585 73.1428 50.7038C73.8337 51.8039 74.331 53.3122 74.243 54.0406C74.2119 54.2977 74.1313 54.2098 73.4924 53.223C72.6473 51.9179 71.6492 50.6708 71.0973 50.2304C70.8799 50.0569 70.4005 49.7561 70.0318 49.5619C69.1111 49.077 67.4779 47.4427 66.6481 46.1761C65.9941 45.1776 65.4696 43.9805 65.3401 43.1904L65.2663 42.7407L66.1244 43.706C66.5963 44.2369 67.3936 45.1121 67.8963 45.6509ZM113.569 44.0783C113.17 44.6433 111.541 47.583 111.069 48.5898C110.803 49.157 110.44 50.0749 110.264 50.6294C109.876 51.8457 109.415 52.5964 108.507 53.4882C107.873 54.1117 106.461 54.996 106.231 54.9134C106.18 54.8951 106.444 54.5089 106.818 54.0552C107.606 53.0999 108.501 51.7606 108.746 51.1718C108.84 50.947 109.004 50.3609 109.111 49.8693C109.577 47.7352 111.419 45.0474 113.062 44.1052C113.729 43.7226 113.823 43.7176 113.569 44.0783ZM46.0323 87.2858L46.0646 110.772L46.2888 112.32C46.872 116.347 47.6442 119.344 48.9452 122.63C50.2128 125.832 51.3567 128.011 53.2774 130.88C56.5174 135.72 60.2872 139.49 65.1336 142.737C71.3386 146.894 78.1924 149.292 85.6388 149.909C87.8428 150.092 92.4895 149.985 94.5745 149.704C105.906 148.173 115.714 142.616 122.889 133.66C127.234 128.237 130.335 121.339 131.542 114.414C132.06 111.442 132.131 110.431 132.185 105.332L132.236 100.511L136.994 100.511C142.84 100.51 143.67 100.406 146.032 99.3819C149.989 97.6658 152.996 93.8749 153.812 89.5757C154.019 88.4829 154.024 85.8848 153.821 84.7203C152.997 79.9933 149.423 75.8779 144.846 74.3852C142.98 73.7769 142.984 73.7773 137.395 73.7292L132.214 73.6845V68.7424V63.8001H89.1068H46L46.0323 87.2858ZM94.4088 69.738C94.4433 69.8277 94.4714 70.016 94.4714 70.1564C94.4714 70.2968 94.5689 70.8818 94.6879 71.4564C96.0403 77.9827 101.087 83.2858 107.516 84.9353C108.14 85.0953 109.057 85.2826 109.553 85.3515L110.455 85.4768V87.2707V89.0646H114.374C118.835 89.0646 118.474 88.9718 118.047 90.0105C117.727 90.7886 116.976 91.8243 116.311 92.4065C115.074 93.4887 113.541 94.0144 111.624 94.0144H110.455V97.4525C110.455 100.555 110.435 100.969 110.249 101.698C109.87 103.179 108.944 104.541 107.726 105.411C104.069 108.02 99.1426 106.433 97.5851 102.144L97.3105 101.388L97.2781 95.9479L97.2456 90.5083H87.7049H78.164L78.2063 96.7213C78.2504 103.213 78.2675 103.492 78.7576 105.71C79.4275 108.742 80.698 111.74 82.4083 114.324C83.4166 115.847 84.2524 116.884 85.5945 118.276L86.6687 119.39L86.3163 119.69C86.1226 119.855 85.6855 120.144 85.3452 120.331C84.751 120.658 84.6818 120.671 83.5922 120.671C81.8702 120.671 81.6726 120.556 79.3643 118.205C78.3434 117.165 77.2993 116.176 77.044 116.006C75.6626 115.087 74.4592 114.734 72.713 114.736C70.2684 114.738 68.742 115.462 66.732 117.573C64.8576 119.541 64.2593 120.088 63.6549 120.384C63.124 120.645 62.9686 120.671 61.9369 120.671C60.216 120.671 60.0179 120.556 57.7089 118.204C55.4675 115.921 54.874 115.492 53.2747 114.999L52.5529 114.777L52.4203 114.063C52.3473 113.671 52.1867 112.723 52.0635 111.957C51.8396 110.567 51.8393 110.537 51.8067 90.0701L51.7741 69.5749H73.0602C92.3752 69.5749 94.352 69.5899 94.4088 69.738ZM126.413 86.7702L126.382 103.966L126.101 105.1C125.059 109.311 123.175 112.895 120.6 115.567C118.817 117.416 118.017 118.102 116.31 119.243C111.105 122.72 104.354 123.847 98.2124 122.264C92.7863 120.865 88.0475 117.479 84.8707 112.731C83.4671 110.633 82.09 107.339 81.5943 104.894C81.2055 102.975 81.1522 102.221 81.0967 97.8557L81.0414 93.4988H87.6409H94.2405L94.2911 97.4432C94.3398 101.247 94.3509 101.423 94.6013 102.367C94.9331 103.618 95.2647 104.359 95.9627 105.408C97.304 107.424 99.5488 108.937 101.918 109.423C102.942 109.633 104.772 109.632 105.793 109.422C109.015 108.758 111.684 106.443 112.821 103.327C113.268 102.104 113.369 101.396 113.436 99.026L113.497 96.8707L114.308 96.6796C114.753 96.5745 115.512 96.3041 115.993 96.0786C118.643 94.8369 120.52 92.5622 121.227 89.7362C121.368 89.1731 121.556 87.3885 121.588 86.3062C121.591 86.2051 120.711 86.1773 117.519 86.1773H113.446V84.3727V82.5681H112.196C110.752 82.5681 109.164 82.3559 107.931 81.9985C103.601 80.7438 99.9352 77.4174 98.291 73.2512C97.949 72.3847 97.5319 70.8644 97.4167 70.0647L97.3461 69.5749H111.895H126.443L126.413 86.7702ZM142.504 78.0892C144.093 78.4124 145.62 79.2168 146.878 80.3944C148.229 81.6583 149.037 82.9851 149.558 84.796C149.757 85.488 149.792 85.842 149.785 87.1569C149.779 88.527 149.747 88.8074 149.502 89.6109C148.482 92.967 145.942 95.3493 142.528 96.1525C141.991 96.2789 140.88 96.3204 137.034 96.358L132.214 96.4051V87.1664V77.9276H136.961C140.866 77.9276 141.851 77.9564 142.504 78.0892ZM56.9355 95.0038C55.4887 95.6304 55.3561 97.6645 56.7125 98.4268C57.8477 99.0649 59.3365 98.3721 59.5665 97.0987C59.8255 95.6653 58.2692 94.4261 56.9355 95.0038ZM68.4335 97.8808C68.3768 97.8996 68.2036 97.9429 68.0486 97.9771C67.6707 98.0604 67.0433 98.625 66.8713 99.0366C66.5225 99.8714 66.8554 100.974 67.5942 101.43C68.1831 101.794 68.8016 101.82 69.4358 101.507C70.1263 101.166 70.4645 100.684 70.5251 99.9541C70.5884 99.191 70.1741 98.4262 69.5162 98.0917C69.2371 97.9497 68.6 97.8257 68.4335 97.8808ZM88.2124 103.115C88.4125 107.883 90.8022 112.206 94.8411 115.106C95.9204 115.881 98.0802 116.927 99.3982 117.313C102.465 118.21 106.051 118.131 108.98 117.102C111.518 116.21 114.018 114.526 115.694 112.578C118.288 109.563 119.682 105.703 119.54 101.929L119.53 101.645H117.998H116.467L116.398 102.777C116.192 106.169 114.99 108.816 112.579 111.184C110.752 112.979 108.784 114.036 106.341 114.533C105.01 114.804 102.879 114.829 101.615 114.587C96.8263 113.673 92.978 110.113 91.7456 105.46C91.4815 104.462 91.2771 103.016 91.2755 102.135L91.2747 101.645H89.7127H88.1507L88.2124 103.115ZM62.3806 101.889C61.0257 102.265 60.1275 103.547 60.2667 104.906C60.4154 106.358 61.6232 107.461 63.0602 107.457C64.674 107.454 65.905 106.233 65.905 104.636C65.905 102.79 64.1271 101.405 62.3806 101.889ZM73.3311 105.042C72.1741 105.393 71.2693 106.596 71.2693 107.781C71.2693 108.759 71.9626 109.872 72.8556 110.328C73.3643 110.587 74.2763 110.677 74.8431 110.524C76.0606 110.194 76.9431 109.046 76.9387 107.798C76.9346 106.668 76.3776 105.762 75.3791 105.263C74.7251 104.937 73.9517 104.853 73.3311 105.042ZM56.9355 108.616C55.4887 109.242 55.3561 111.276 56.7125 112.039C57.8477 112.677 59.3365 111.984 59.5665 110.711C59.8255 109.277 58.2692 108.038 56.9355 108.616ZM125.613 114.664C125.224 116.439 124.431 119.212 124.195 119.625C124.136 119.727 122.519 118.149 122.522 117.992C122.523 117.934 122.81 117.562 123.159 117.165C123.828 116.405 125.162 114.654 125.474 114.125C125.575 113.954 125.69 113.814 125.729 113.814C125.768 113.814 125.716 114.196 125.613 114.664ZM74.4838 118.588C75.087 118.883 75.6833 119.427 77.5596 121.398C78.8239 122.725 79.7926 123.408 81.0536 123.859C81.9015 124.163 82.0156 124.177 83.5406 124.177C84.9377 124.177 85.2287 124.147 85.852 123.938C87.1248 123.512 88.0029 122.973 89.0112 121.998L89.4803 121.545L90.7127 122.288C93.6533 124.061 97.1257 125.256 100.69 125.72C102.233 125.921 105.385 125.927 106.953 125.731C109.499 125.414 112.11 124.682 114.457 123.629C115.792 123.03 117.892 121.802 118.993 120.977C119.407 120.667 119.786 120.413 119.835 120.413C119.884 120.413 120.195 120.722 120.526 121.099C121.091 121.742 122.213 122.764 122.581 122.969C122.723 123.049 122.683 123.184 122.275 123.997C122.017 124.511 121.569 125.333 121.279 125.824C120.771 126.683 120.743 126.711 120.527 126.57C118.973 125.553 118.062 125.249 116.385 125.184C113.516 125.075 111.821 125.946 109.163 128.894C107.536 130.699 106.753 131.149 105.231 131.153C103.644 131.158 102.886 130.698 100.927 128.546C99.1519 126.596 97.9879 125.801 96.2643 125.36C95.3002 125.114 93.7169 125.092 92.6668 125.311C91.6407 125.525 90.2337 126.257 89.3553 127.034C88.952 127.391 88.1442 128.207 87.5604 128.846C85.8626 130.707 85.1023 131.15 83.5996 131.153C82.6568 131.155 81.9641 130.96 81.3076 130.508C81.0719 130.346 80.2599 129.558 79.5029 128.757C77.97 127.134 77.0342 126.347 76.084 125.883C74.1857 124.954 71.4988 124.905 69.6616 125.765C68.5358 126.292 67.8605 126.84 66.0617 128.687C64.67 130.116 64.1869 130.546 63.718 130.772C63.0166 131.11 62.1108 131.237 61.2335 131.12C60.5176 131.025 60.5936 131.091 59.3695 129.488C58.447 128.28 57.5667 126.968 56.7883 125.641C55.6842 123.759 53.8283 119.67 54.0006 119.499C54.0367 119.463 54.4661 119.874 54.9548 120.413C56.5967 122.224 57.4148 122.926 58.5502 123.499C60.4895 124.479 63.3416 124.49 65.2522 123.525C66.2406 123.026 67.0231 122.368 68.5804 120.727C70.2041 119.016 70.4138 118.841 71.2582 118.485C71.76 118.273 71.9728 118.245 72.869 118.272C73.7495 118.298 73.9871 118.345 74.4838 118.588ZM74.3021 128.954C75.0842 129.305 75.6885 129.819 76.8995 131.163C79.2854 133.811 80.8828 134.655 83.5406 134.671C84.8644 134.679 85.6602 134.517 86.7095 134.028C87.8029 133.518 88.2745 133.134 90.1919 131.19C92.5002 128.851 92.7297 128.715 94.3705 128.715C95.3894 128.715 95.4975 128.735 96.1463 129.055C96.7307 129.342 97.0723 129.641 98.3612 130.992C100.025 132.737 100.679 133.298 101.703 133.861C103.635 134.923 106.536 134.964 108.528 133.958C109.543 133.446 109.997 133.066 111.847 131.182C114.142 128.844 114.362 128.715 116.024 128.715C116.976 128.715 117.175 128.747 117.674 128.983C117.985 129.131 118.349 129.341 118.48 129.449L118.72 129.647L117.825 130.727C114.429 134.825 109.943 138.333 105.166 140.625C103.846 141.258 103.618 141.338 103.417 141.234C102.852 140.943 102.032 140.21 101.06 139.127C99.3732 137.248 98.2886 136.451 96.6885 135.912C95.9409 135.66 95.7233 135.634 94.3683 135.636C93.041 135.638 92.7829 135.668 92.071 135.905C90.5878 136.397 89.9632 136.854 87.8717 138.98C86.2551 140.624 85.8638 140.967 85.3081 141.229C84.504 141.609 83.5931 141.724 82.7564 141.552C81.6186 141.317 80.9261 140.814 79.4061 139.118C78.0946 137.654 77.049 136.794 75.9613 136.285C73.6161 135.186 70.7225 135.377 68.6424 136.769C68.3128 136.99 67.9409 137.236 67.8159 137.317C67.6021 137.454 67.5153 137.407 66.3611 136.523C65.6859 136.005 64.8588 135.334 64.5228 135.03L63.9119 134.478L64.5228 134.255C65.8081 133.783 66.3925 133.344 68.3304 131.39C70.3335 129.371 70.6318 129.125 71.4218 128.843C72.1493 128.583 73.5996 128.639 74.3021 128.954ZM74.4419 139.441C74.8818 139.651 75.3566 140.051 76.2964 141.001C76.9911 141.703 77.5596 142.322 77.5596 142.375C77.5596 142.591 74.4476 141.34 72.2717 140.25C70.82 139.522 70.7843 139.463 71.6497 139.219C72.4406 138.996 73.723 139.098 74.4419 139.441ZM95.5096 139.242C96.3909 139.5 96.9609 139.932 98.3359 141.385C99.8125 142.945 99.859 142.739 97.926 143.209C94.9711 143.929 91.9937 144.269 89.1164 144.216L87.319 144.183L87.7758 143.89C88.0271 143.729 89.0679 142.748 90.0888 141.711C91.9782 139.791 92.4802 139.41 93.414 139.19C94.0347 139.044 94.9059 139.065 95.5096 139.242Z" fill="#361410"/>
</svg>
